<svg width="107" height="120" viewBox="0 0 107 120" fill="none" xmlns="http://www.w3.org/2000/svg">
<g clip-path="url(#clip0)">
<path d="M106.489 35.1883C106.488 33.1758 106.057 31.3975 105.187 29.8717C104.332 28.3704 103.052 27.1125 101.334 26.1179C87.1571 17.9433 72.9662 9.79375 58.7937 1.61083C54.9729 -0.594999 51.2683 -0.514166 47.4758 1.72333C41.8329 5.05083 13.5808 21.2371 5.16208 26.1133C1.695 28.1208 0.00791321 31.1925 0.00707987 35.1846C0.00166321 51.6242 0.00707987 68.0637 0.00166321 84.5033C0.00166321 86.4717 0.41458 88.2158 1.24666 89.7187C2.10208 91.265 3.40041 92.5575 5.1575 93.5746C13.5767 98.4508 41.8325 114.636 47.4742 117.965C51.2683 120.203 54.9729 120.283 58.795 118.077C72.9679 109.894 87.1596 101.744 101.339 93.5696C103.096 92.5529 104.394 91.2596 105.25 89.7146C106.08 88.2113 106.494 86.4675 106.494 84.4987C106.494 84.4987 106.494 51.6283 106.489 35.1883Z" fill="#A179DC"/>
<path d="M53.4108 59.6837L1.24667 89.7187C2.10209 91.265 3.40042 92.5575 5.15751 93.5746C13.5767 98.4508 41.8325 114.636 47.4742 117.965C51.2683 120.203 54.9729 120.283 58.795 118.077C72.9679 109.894 87.1596 101.744 101.339 93.5696C103.096 92.5529 104.394 91.2596 105.25 89.7146L53.4108 59.6837" fill="#280068"/>
<path d="M106.489 35.1883C106.488 33.1758 106.057 31.3975 105.187 29.8717L53.4108 59.6842L105.25 89.7146C106.08 88.2113 106.493 86.4675 106.494 84.4988C106.494 84.4988 106.494 51.6283 106.489 35.1883" fill="#390091"/>
<path d="M84.1233 48.4558V54.07H89.7375V48.4558H92.5446V54.07H98.1588V56.8771H92.5446V62.4908H98.1588V65.2979H92.5446V70.9121H89.7375V65.2979H84.1233V70.9121H81.3163V65.2979H75.7025V62.4908H81.3163V56.8771H75.7025V54.07H81.3163V48.4558H84.1233ZM89.7375 56.8767H84.1233V62.4908H89.7375V56.8771V56.8767Z" fill="white"/>
<path d="M53.5254 20.2608C68.1687 20.2608 80.9533 28.2133 87.8012 40.0342L87.7346 39.9204L70.5054 49.8404C67.1112 44.0933 60.8887 40.2146 53.75 40.1346L53.525 40.1333C42.6396 40.1333 33.8146 48.9583 33.8146 59.8438C33.811 63.2747 34.7074 66.6466 36.4142 69.6229C39.8117 75.5542 46.1987 79.5546 53.5254 79.5546C60.8975 79.5546 67.3208 75.5033 70.7008 69.5088L70.6187 69.6525L87.8217 79.6183C81.0488 91.3392 68.4392 99.2671 53.9662 99.425L53.5254 99.4275C38.8358 99.4275 26.015 91.4258 19.1842 79.5425C15.8496 73.7413 13.9417 67.0158 13.9417 59.8438C13.9417 37.9829 31.6633 20.2604 53.525 20.2604L53.5254 20.2608Z" fill="white"/>
</g>
<defs>
<clipPath id="clip0">
<rect width="106.67" height="120" fill="white"/>
</clipPath>
</defs>
</svg>
