<svg width="120" height="120" viewBox="0 0 120 120" fill="none" xmlns="http://www.w3.org/2000/svg">
<path d="M22.1325 102.004L13.71 7.5H106.29L97.8562 101.989L59.9437 112.5L22.1325 102.004Z" fill="#1572B6"/>
<path d="M60 104.468L90.6375 95.9738L97.845 15.2287H60V104.468Z" fill="#33A9DC"/>
<path d="M60 49.4663H75.3375L76.395 37.5975H60V26.0063H89.0625L88.785 29.115L85.9387 61.0575H60V49.4663V49.4663Z" fill="white"/>
<path d="M60.0712 79.5675L60.0187 79.5825L47.1112 76.095L46.2862 66.8512H34.65L36.2737 85.05L60.015 91.6425L60.0712 91.6275V79.5675V79.5675Z" fill="#EBEBEB"/>
<path d="M74.3512 60.5662L72.9563 76.0875L60.03 79.575V91.635L83.79 85.05L83.9663 83.0925L85.98 60.5662H74.3512V60.5662Z" fill="white"/>
<path d="M60.0413 26.0063V37.5975H32.0438L31.8113 34.9913L31.2825 29.115L31.005 26.0063H60.0413V26.0063Z" fill="#EBEBEB"/>
<path d="M60 49.4663V61.0575H47.2538L47.0212 58.4513L46.4963 52.575L46.2188 49.4663H60V49.4663Z" fill="#EBEBEB"/>
</svg>
