<svg width="120" height="120" viewBox="0 0 120 120" fill="none" xmlns="http://www.w3.org/2000/svg">
<path d="M117.737 54.6533L65.3437 2.26301C62.3283 -0.754336 57.4345 -0.754336 54.4153 2.26301L43.5356 13.1427L57.337 26.9441C60.5442 25.8604 64.222 26.5874 66.7786 29.1439C69.3473 31.7169 70.0692 35.4261 68.9592 38.6436L82.26 51.9449C85.478 50.8363 89.1909 51.5535 91.7611 54.1279C95.3531 57.7185 95.3531 63.538 91.7611 67.131C88.1681 70.7244 82.3486 70.7244 78.7537 67.131C76.0519 64.4263 75.3844 60.4583 76.7522 57.1297L64.3481 44.7257L64.3467 77.368C65.2459 77.8126 66.0672 78.3999 66.7786 79.1071C70.3706 82.6977 70.3706 88.5177 66.7786 92.1135C63.1856 95.705 57.3633 95.705 53.7755 92.1135C50.1834 88.5177 50.1834 82.6982 53.7755 79.1075C54.6363 78.2463 55.6593 77.5642 56.7853 77.1008V44.1543C55.6576 43.6939 54.6341 43.0115 53.7755 42.1475C51.0539 39.4297 50.3995 35.4364 51.7941 32.0947L38.1891 18.4883L2.26406 54.411C-0.754688 57.4311 -0.754688 62.3254 2.26406 65.3432L54.6581 117.734C57.6745 120.752 62.5673 120.752 65.5875 117.734L117.736 65.5864C120.754 62.5677 120.754 57.6707 117.736 54.6533" fill="#DE4C36"/>
</svg>
