<svg width="95" height="120" viewBox="0 0 95 120" fill="none" xmlns="http://www.w3.org/2000/svg">
<g clip-path="url(#clip0)">
<path d="M94.8332 23.5233L86.2089 110.07L47.4421 119.697L8.78221 110.083L0.16684 23.5233H94.8332Z" fill="#E44D26"/>
<path d="M47.5 112.338L78.8255 104.559L86.1951 30.6007H47.5V112.338Z" fill="#F16529"/>
<path d="M30.7346 51.8334H47.5V41.2172H17.7827L18.0663 44.0653L20.9792 73.3207H47.5V62.7045H31.8178L30.7346 51.8334V51.8334Z" fill="#EBEBEB"/>
<path d="M33.4056 78.6289H21.5088L23.169 95.2979L47.4455 101.335L47.5 101.321V90.2759L47.4481 90.2882L34.2495 87.0957L33.4056 78.6289V78.6289Z" fill="#EBEBEB"/>
<path d="M8.97443 0H14.9971V5.33019H20.5065V0H26.5295V16.1412H20.5069V10.7362H14.9974V16.1412H8.9748V0H8.97443Z" fill="black"/>
<path d="M34.4491 5.3528H29.1479V0H45.7775V5.3528H40.4729V16.1412H34.4502V5.3528H34.4499H34.4491Z" fill="black"/>
<path d="M48.4166 0H54.6964L58.5593 5.67158L62.4185 0H68.7009V16.1412H62.7028V8.14072L58.5593 13.8798H58.4554L54.3093 8.14072V16.1412H48.4166V0Z" fill="black"/>
<path d="M71.6982 0H77.7226V10.806H86.1922V16.1412H71.6978V0H71.6982Z" fill="black"/>
<path d="M47.4592 73.3207H62.0526L60.6767 87.0891L47.4588 90.2849V101.33L71.7545 95.2979L71.9327 93.5043L74.718 65.5552L75.0071 62.7045H47.4592V73.3207Z" fill="white"/>
<path d="M47.4592 51.8074V51.8334H76.0854L76.3229 49.4473L76.8632 44.0653L77.1464 41.2172H47.4592V51.8078V51.8074Z" fill="white"/>
</g>
<defs>
<clipPath id="clip0">
<rect width="95" height="120" fill="white"/>
</clipPath>
</defs>
</svg>
