<svg width="421" height="120" viewBox="0 0 421 120" fill="none" xmlns="http://www.w3.org/2000/svg">
<g clip-path="url(#clip0_28:2)">
<path fill-rule="evenodd" clip-rule="evenodd" d="M391.823 49.6956C391.445 49.7712 391.065 50.6055 391.065 51.06C390.99 54.0945 390.914 62.1345 390.914 67.5953C390.914 67.7474 391.141 68.0507 391.368 68.0507C392.506 68.1263 395.236 68.2019 397.588 68.2019C400.849 68.2019 402.745 67.7474 403.808 67.2929C406.538 65.9268 407.827 62.9688 407.827 59.7066C407.827 52.3504 402.67 49.5436 395.009 49.5436C394.478 49.4679 392.962 49.4679 391.823 49.6956V49.6956ZM411.393 83.5997C411.393 76.0907 405.856 71.9186 395.844 71.9186C395.388 71.9186 392.203 71.843 391.444 71.9942C391.216 72.0707 390.914 72.2227 390.914 72.4504C390.914 77.8348 390.838 86.4066 391.065 89.7436C391.216 91.1844 392.279 93.2326 393.569 93.8392C394.933 94.5978 398.043 94.749 400.167 94.749C406.159 94.749 411.393 91.4121 411.393 83.5997V83.5997ZM376.351 45.5244C377.109 45.5244 379.384 45.7512 385.225 45.7512C390.762 45.7512 395.161 45.6 400.546 45.6C407.144 45.6 416.246 47.9507 416.246 57.8112C416.246 62.6655 412.833 66.5342 408.358 68.4304C408.131 68.506 408.131 68.6573 408.358 68.7329C414.729 70.3266 420.343 74.2701 420.343 81.7027C420.343 88.9849 415.792 93.6115 409.193 96.494C405.173 98.2381 400.167 98.8447 395.085 98.8447C391.216 98.8447 380.826 98.3901 375.062 98.5422C374.455 98.3137 375.593 95.5833 376.123 95.1288C377.489 95.0523 378.55 94.9767 379.991 94.5214C382.04 93.9912 382.267 93.3838 382.57 90.2745C382.722 87.6197 382.722 78.2137 382.722 71.5397C382.722 62.3622 382.798 56.1427 382.722 53.109C382.646 50.7584 381.812 49.9989 380.144 49.5436C378.853 49.3167 376.73 49.0126 374.985 48.7857C374.605 48.406 375.895 45.8268 376.351 45.5244ZM332.586 92.7016C334.407 94.1416 337.972 94.7482 341.158 94.7482C345.253 94.7482 349.349 93.9912 353.293 90.4249C357.313 86.7855 360.119 81.1726 360.119 72.2227C360.119 63.651 356.858 56.6729 350.183 52.5781C346.391 50.2258 341.536 49.2411 335.924 49.2411C334.255 49.2411 332.662 49.3167 331.677 49.7712C331.448 49.9233 330.918 50.6055 330.918 50.9844C330.766 52.5016 330.766 64.1819 330.766 71.0088C330.766 78.0625 330.766 87.923 330.918 89.0605C330.918 90.1989 331.448 91.943 332.587 92.7016H332.586ZM315.368 45.5236C316.81 45.5236 322.346 45.7512 325.001 45.7512C329.781 45.7512 333.193 45.5244 342.219 45.5244C349.803 45.5244 356.175 47.5718 360.726 51.4397C366.262 56.2184 369.145 62.8175 369.145 70.8567C369.145 82.3101 363.911 88.9093 358.678 92.7016C353.445 96.5696 346.618 98.8447 336.91 98.8447C331.752 98.8447 322.878 98.6934 315.52 98.617H315.445C315.066 97.9348 316.051 95.28 316.658 95.2044C318.63 94.9767 319.161 94.9003 320.148 94.5222C321.74 93.9148 322.044 93.0805 322.272 90.2745C322.498 85.0405 322.423 78.7455 322.423 71.6153C322.423 66.5342 322.498 56.5973 322.346 53.4115C322.119 50.7575 320.982 50.0745 318.706 49.6192C317.568 49.3923 316.051 49.0882 313.928 48.8614C313.624 48.3296 314.989 45.9789 315.368 45.5244V45.5236Z" fill="#8E714E"/>
<path fill-rule="evenodd" clip-rule="evenodd" d="M223.593 95.6589C221.697 95.4312 220.331 95.1288 218.663 94.3701C218.435 94.2181 218.056 93.4603 218.056 93.1562C217.904 90.5014 217.904 82.9167 217.904 77.8356C217.904 73.7392 217.222 70.1745 215.477 67.6718C213.429 64.7885 210.472 63.1208 206.679 63.1208C203.342 63.1208 198.866 65.3959 195.15 68.5816C195.074 68.6573 194.467 69.189 194.543 68.354C194.543 67.5197 194.695 65.8512 194.771 64.7129C194.847 63.651 194.24 63.1208 194.24 63.1208C191.813 64.334 184.987 65.9268 182.483 66.1537C180.663 66.5342 180.208 68.2784 182.105 68.8849H182.181C184.227 69.4915 185.593 70.1745 186.654 70.8575C187.413 71.4641 187.337 72.2984 187.337 72.9814C187.413 78.669 187.413 87.3921 187.186 92.1707C187.11 94.0668 186.579 94.749 185.213 95.0523L185.365 94.9767C184.304 95.2044 183.469 95.4312 182.18 95.5833C181.724 96.0386 181.724 98.4658 182.18 98.9967C183.014 98.9967 187.413 98.769 191.055 98.769C196.06 98.769 198.639 98.9967 199.928 98.9967C200.459 98.3901 200.611 96.1142 200.308 95.5833C198.866 95.5077 197.804 95.3564 196.819 95.0523C195.454 94.7482 195.074 94.0669 194.998 92.474C194.847 88.4532 194.847 79.9586 194.847 74.1945C194.847 72.6016 195.302 71.843 195.756 71.3877C197.501 69.8712 200.308 68.8093 202.811 68.8093C205.238 68.8093 206.83 69.5679 208.044 70.5542C209.712 71.9186 210.243 73.8912 210.471 75.3321C210.85 78.5934 210.699 85.0405 210.699 90.6534C210.699 93.6871 210.471 94.4458 209.334 94.8247C208.802 95.0523 207.437 95.3564 205.844 95.5068C205.313 96.0386 205.465 98.3901 205.844 98.9211C208.044 98.9211 210.623 98.6934 214.415 98.6934C219.118 98.6934 222.152 98.9211 223.366 98.9211C223.744 98.4658 223.896 96.2663 223.593 95.6589V95.6589ZM244.603 66.6863C240.584 66.6863 238.08 69.7956 238.08 74.649C238.08 79.5797 240.279 85.2682 246.499 85.2682C247.561 85.2682 249.533 84.8129 250.442 83.751C251.884 82.3866 252.87 79.6553 252.87 76.7729C252.87 70.4778 249.76 66.6855 244.603 66.6855V66.6863ZM244.072 100.21C242.555 100.21 241.493 100.665 240.81 101.045C237.625 103.092 236.184 105.064 236.184 107.416C236.184 109.615 237.018 111.359 238.839 112.876C241.038 114.773 244.072 115.683 247.94 115.683C255.676 115.683 259.09 111.511 259.09 107.416C259.09 104.533 257.648 102.637 254.691 101.576C252.567 100.665 248.699 100.21 244.072 100.21V100.21ZM244.603 119.931C239.976 119.931 236.638 118.945 233.757 116.745C230.95 114.621 229.737 111.436 229.737 109.236C229.737 108.63 229.889 106.96 231.254 105.444C232.087 104.533 233.909 102.789 238.232 99.831C238.383 99.7553 238.459 99.6797 238.459 99.5269C238.459 99.3756 238.307 99.2236 238.156 99.1488C234.591 97.7836 233.529 95.5833 233.225 94.3701V94.2181C233.15 93.7627 232.998 93.3082 233.681 92.8529C234.212 92.474 234.971 92.0186 235.804 91.4885C237.094 90.729 238.459 89.8948 239.293 89.2118C239.445 89.0605 239.445 88.9093 239.445 88.7573C239.445 88.6052 239.293 88.4532 239.141 88.3784C233.833 86.6334 231.178 82.689 231.178 76.7729C231.178 72.9049 232.922 69.4159 236.032 67.2164C238.156 65.5479 243.465 63.4997 246.954 63.4997H247.182C250.747 63.5753 252.718 64.334 255.524 65.3203C257.042 65.8512 258.483 66.0781 260.456 66.0781C263.413 66.0781 264.703 65.1682 265.764 64.1071C265.84 64.2584 265.992 64.6381 266.068 65.6236C266.144 66.6099 265.84 68.0507 265.082 69.1126C264.475 69.9468 263.11 70.5542 261.745 70.5542H261.365C260 70.4022 259.392 70.2501 259.392 70.2501L259.09 70.4022C259.014 70.5542 259.09 70.7055 259.165 70.9332L259.242 71.0852C259.393 71.7674 259.696 73.8148 259.696 74.3466C259.696 80.566 257.194 83.2956 254.539 85.3438C251.96 87.24 249.002 88.4532 245.665 88.7573C245.589 88.7573 245.287 88.7573 244.603 88.8329C244.224 88.8329 243.693 88.9093 243.616 88.9093H243.541C242.934 89.0605 241.418 89.8192 241.418 91.1079C241.418 92.2455 242.1 93.6115 245.361 93.8392C246.044 93.9148 246.726 93.9148 247.485 93.9912C251.808 94.2937 257.194 94.6734 259.696 95.5077C263.185 96.7964 265.385 99.9066 265.385 103.623C265.385 109.237 261.366 114.47 254.691 117.731C251.43 119.172 248.167 119.931 244.603 119.931V119.931ZM287.836 67.0652C286.244 67.0652 284.802 67.4433 283.74 68.2019C280.783 70.0225 279.265 73.6636 279.265 78.9723C279.265 88.9093 284.271 95.8874 291.401 95.8874C293.525 95.8874 295.193 95.28 296.634 94.0668C298.834 92.2455 299.972 88.6052 299.972 83.5233C299.972 73.6636 295.041 67.0644 287.836 67.0644L287.836 67.0652ZM289.202 99.5277C276.307 99.5277 271.681 90.0469 271.681 81.1726C271.681 74.9532 274.184 70.1745 279.189 66.7611C282.754 64.5616 287.002 63.3485 290.794 63.3485C300.654 63.3485 307.557 70.4022 307.557 80.566C307.557 87.4677 304.826 92.9285 299.592 96.2663C297.09 97.9348 292.766 99.5277 289.201 99.5277H289.202V99.5277ZM154.041 67.0644C152.448 67.0644 151.007 67.4433 149.944 68.2019C146.987 70.0225 145.47 73.6636 145.47 78.9723C145.47 88.9093 150.475 95.8874 157.605 95.8874C159.729 95.8874 161.397 95.28 162.839 94.0668C165.038 92.2455 166.176 88.6052 166.176 83.5233C166.176 73.6636 161.322 67.0644 154.041 67.0644ZM155.406 99.5277C142.511 99.5277 137.885 90.0469 137.885 81.1726C137.885 74.9532 140.388 70.1745 145.393 66.7611C148.959 64.5616 153.206 63.3485 156.999 63.3485C166.859 63.3485 173.761 70.4022 173.761 80.566C173.761 87.4677 171.03 92.9285 165.796 96.2663C163.369 97.9348 159.046 99.5277 155.406 99.5277ZM68.7115 98.769C68.5594 98.5422 68.4074 97.8592 68.4838 97.0249C68.4838 96.4175 68.6358 96.0386 68.7115 95.8874C70.3043 95.6589 71.1386 95.4312 72.0484 95.2044C73.5657 94.8247 74.1723 93.9912 74.2479 92.0951C74.4764 87.5441 74.4764 78.8967 74.4 72.9049V72.7529C74.4 72.0707 74.4 71.2356 73.5657 70.629C72.3517 69.8712 70.9109 69.189 69.0147 68.6564C68.3326 68.4304 67.8772 68.0507 67.9528 67.5962C67.9528 67.1408 68.4082 66.6099 69.3945 66.4578C71.8972 66.2301 78.4191 64.6381 80.9983 63.4997C81.1504 63.651 81.378 64.1071 81.378 64.7137L81.3024 65.5471C81.226 66.3822 81.1504 67.3685 81.1504 68.354C81.1504 68.6573 81.4545 68.8849 81.7569 68.8849C81.909 68.8849 82.061 68.8093 82.2123 68.7329C87.0665 64.9405 91.4654 63.5753 93.7405 63.5753C97.458 63.5753 100.341 65.3203 102.54 68.9605C102.691 69.189 102.843 69.2647 103.071 69.2647C103.222 69.2647 103.449 69.189 103.525 69.037C108.001 65.6236 112.476 63.5753 115.433 63.5753C122.487 63.5753 126.659 68.8093 126.659 77.6836C126.659 80.1863 126.659 83.4477 126.584 86.4066C126.584 89.0605 126.508 91.4877 126.508 93.2326C126.508 93.6107 127.038 94.8247 127.872 95.0523C128.934 95.5833 130.376 95.811 132.272 96.1142H132.348C132.5 96.6452 132.196 98.617 131.893 98.9967C131.438 98.9967 130.755 98.9967 129.997 98.9211C128.077 98.8209 126.155 98.7702 124.232 98.769C119.53 98.769 117.103 98.8447 114.75 98.9967C114.6 98.3901 114.524 96.5696 114.75 96.1142C116.116 95.8874 116.799 95.6589 117.634 95.4321C119.151 94.9767 119.53 94.2937 119.606 92.3219C119.606 90.8811 119.909 78.5934 119.453 75.6353C118.999 72.6016 116.723 69.037 111.717 69.037C109.821 69.037 106.863 69.7956 103.981 71.9942C103.83 72.1463 103.677 72.5252 103.677 72.7529V72.8293C103.981 74.4214 103.981 76.2427 103.981 79.0488V83.9786C103.981 87.3921 103.904 90.5778 103.981 93.0041C103.981 94.6734 104.967 95.0523 105.801 95.3564C106.257 95.4312 106.559 95.5077 106.939 95.5833C107.621 95.7353 108.304 95.8874 109.366 96.1142C109.518 96.4184 109.518 97.4038 109.29 98.2381C109.214 98.6934 109.062 98.9203 108.986 98.9967C106.408 98.9211 103.753 98.8447 99.8852 98.8447C98.7476 98.8447 96.775 98.9211 95.1065 98.9211C93.7405 98.9211 92.4517 98.9967 91.6939 98.9967C91.6175 98.8447 91.4654 98.3145 91.4654 97.4795C91.4654 96.7973 91.6175 96.2663 91.7695 96.1142C92.1485 96.0386 92.4517 95.963 92.8315 95.963C93.7405 95.811 94.5 95.6589 95.2578 95.5077C96.5482 95.1288 97.0027 94.4458 97.0783 92.7773C97.306 88.9849 97.5337 78.1389 97.0027 75.4077C96.0928 71.0088 93.5901 68.8093 89.5693 68.8093C87.2186 68.8093 84.2597 69.9468 81.8334 71.7682C81.4537 72.0707 81.1504 72.8285 81.1504 73.5115V77.9869C81.1504 83.4477 81.1504 90.2745 81.226 93.2326C81.3024 94.1416 81.6049 95.2044 83.3498 95.5833C83.7295 95.6589 84.3361 95.811 85.0948 95.8874L86.4591 96.1142C86.612 96.5696 86.5356 98.3901 86.2323 98.9967C85.4737 98.9967 84.5638 98.9211 83.5011 98.9211C81.909 98.8447 79.8608 98.769 77.5857 98.769C74.9309 98.769 73.0348 98.8447 71.5175 98.9211C70.4556 98.769 69.6213 98.769 68.7115 98.769V98.769Z" fill="#442D22"/>
<path fill-rule="evenodd" clip-rule="evenodd" d="M28.8147 116.973L25.7054 115.91C25.7054 115.91 26.0852 100.059 20.3958 98.9211C16.6043 94.5214 21.0041 -87.6649 34.6561 98.3137C34.6561 98.3137 29.9531 100.664 29.1189 104.685C28.2082 108.63 28.8147 116.973 28.8147 116.973V116.973Z" fill="white"/>
<path fill-rule="evenodd" clip-rule="evenodd" d="M28.8147 116.973L25.7054 115.91C25.7054 115.91 26.0852 100.059 20.3958 98.9211C16.6043 94.5214 21.0041 -87.6649 34.6561 98.3137C34.6561 98.3137 29.9531 100.664 29.1189 104.685C28.2082 108.63 28.8147 116.973 28.8147 116.973V116.973Z" fill="#A6A385"/>
<path fill-rule="evenodd" clip-rule="evenodd" d="M30.4841 101.652C30.4841 101.652 57.7142 83.751 51.3419 46.509C45.1989 19.4326 30.7117 10.5584 29.1189 7.14494C27.3748 4.71781 25.7054 0.470963 25.7054 0.470963L26.8438 75.7866C26.8438 75.863 24.4923 98.8447 30.4849 101.652" fill="white"/>
<path fill-rule="evenodd" clip-rule="evenodd" d="M30.4841 101.652C30.4841 101.652 57.7142 83.751 51.3419 46.509C45.1989 19.4326 30.7117 10.5584 29.1189 7.14494C27.3748 4.71781 25.7054 0.470963 25.7054 0.470963L26.8438 75.7866C26.8438 75.863 24.4923 98.8447 30.4849 101.652" fill="#499D4A"/>
<path fill-rule="evenodd" clip-rule="evenodd" d="M24.1134 102.637C24.1134 102.637 -1.44826 85.1918 0.0689961 54.4743C1.50982 23.7559 19.5616 8.6622 23.0506 5.93179C25.3265 3.50466 25.4021 2.59398 25.5542 0.166855C27.1471 3.58028 26.8438 51.2129 27.0706 56.8249C27.7528 78.4414 25.8575 98.5422 24.1134 102.637Z" fill="white"/>
<path fill-rule="evenodd" clip-rule="evenodd" d="M24.1134 102.637C24.1134 102.637 -1.44826 85.1918 0.0689961 54.4743C1.50982 23.7559 19.5616 8.6622 23.0506 5.93179C25.3265 3.50466 25.4021 2.59398 25.5542 0.166855C27.1471 3.58028 26.8438 51.2129 27.0706 56.8249C27.7528 78.4414 25.8575 98.5422 24.1134 102.637Z" fill="#58AA50"/>
</g>
<defs>
<clipPath id="clip0_28:2">
<rect width="420.83" height="120" fill="white"/>
</clipPath>
</defs>
</svg>
