<svg width="122" height="120" viewBox="0 0 122 120" fill="none" xmlns="http://www.w3.org/2000/svg">
<g clip-path="url(#clip0)">
<path d="M112.216 92.4819C105.588 92.3167 100.452 92.9795 96.1436 94.8019C94.9007 95.2986 92.9121 95.299 92.7464 96.8733C93.4093 97.5362 93.4921 98.6133 94.0721 99.5243C95.0674 101.181 96.806 103.418 98.3802 104.579C100.12 105.904 101.86 107.229 103.682 108.389C106.914 110.378 110.559 111.537 113.707 113.526C115.531 114.685 117.352 116.177 119.175 117.42C120.086 118.081 120.666 119.16 121.826 119.573V119.325C121.246 118.579 121.08 117.502 120.501 116.674C119.673 115.845 118.844 115.1 118.015 114.271C115.613 111.04 112.63 108.223 109.399 105.904C106.748 104.081 100.948 101.596 99.8717 98.53C99.8717 98.53 99.7883 98.4476 99.706 98.3648C101.528 98.199 103.682 97.5362 105.423 97.039C108.239 96.2929 110.807 96.459 113.707 95.7133C115.033 95.3819 116.358 94.9676 117.684 94.5533V93.8081C116.193 92.3167 115.116 90.3286 113.542 88.92C109.316 85.2738 104.676 81.7119 99.8717 78.7295C97.3031 77.0724 93.9888 75.9952 91.255 74.5871C90.2617 74.0895 88.604 73.8414 88.0245 73.0128C86.5326 71.1905 85.704 68.7881 84.6274 66.6338C82.2255 62.0767 79.905 57.0233 77.8336 52.2186C76.3431 48.9871 75.4317 45.7557 73.6088 42.7738C65.0755 28.6895 55.7964 20.1562 41.5469 11.7881C38.4812 10.0486 34.836 9.30285 30.9421 8.3919C28.8717 8.30856 26.7998 8.14333 24.7288 8.05999C23.4031 7.47999 22.0774 5.90618 20.9174 5.16047C16.196 2.17761 4.01643 -4.28382 0.536904 4.24952C-1.70024 9.63428 3.85119 14.9362 5.75595 17.6709C7.16548 19.5762 8.98738 21.73 9.98167 23.8843C10.5617 25.2919 10.7269 26.7843 11.3069 28.2752C12.6331 31.9195 13.875 35.98 15.6155 39.3771C16.5269 41.1167 17.5207 42.939 18.6807 44.5133C19.3436 45.4243 20.5031 45.839 20.7521 47.33C19.5926 48.9871 19.5093 51.4729 18.846 53.5438C15.8636 62.9057 17.024 74.5043 21.2488 81.3805C22.574 83.4509 25.7226 88.009 29.9479 86.2686C33.6764 84.7776 32.8479 80.0552 33.924 75.9129C34.1736 74.9176 34.0079 74.2557 34.5045 73.5929V73.759C35.6645 76.0781 36.824 78.3157 37.9012 80.6352C40.4698 84.6943 44.9431 88.92 48.6712 91.7371C50.6602 93.2276 52.234 95.7962 54.7198 96.7076V96.4586H54.5536C54.0564 95.7129 53.3107 95.3819 52.6483 94.8014C51.1574 93.3109 49.4998 91.4881 48.3402 89.8309C44.8612 85.1909 41.795 80.0548 39.0612 74.7524C37.736 72.1848 36.5755 69.3676 35.4988 66.7995C35.0012 65.8043 35.0012 64.3138 34.1731 63.8171C32.9302 65.6395 31.1079 67.2138 30.1964 69.4505C28.6231 73.0128 28.4569 77.4038 27.8769 81.96C27.5455 82.0438 27.7107 81.96 27.545 82.1267C24.8945 81.4629 23.9831 78.7295 22.9883 76.4095C20.5026 70.5276 20.0883 61.0829 22.2431 54.2895C22.8231 52.5495 25.3088 47.0819 24.3145 45.4248C23.8174 43.8505 22.1598 42.939 21.2488 41.6967C20.1721 40.1224 19.0117 38.1348 18.2664 36.3943C16.2779 31.7548 15.2836 26.6181 13.1298 21.9786C12.1355 19.8243 10.3964 17.5881 8.98738 15.5995C7.41357 13.3628 5.67357 11.7881 4.43071 9.13714C4.0169 8.22618 3.43643 6.73475 4.09928 5.74047C4.265 5.07761 4.59595 4.82952 5.25928 4.6638C6.33643 3.7519 9.40214 4.9119 10.4783 5.40904C13.544 6.65095 16.1121 7.8119 18.6807 9.55142C19.8402 10.38 21.0831 11.9543 22.574 12.3686H24.314C26.9655 12.9481 29.9474 12.5343 32.4331 13.2795C36.8245 14.6876 40.8007 16.759 44.3636 18.9962C55.2169 25.8724 64.1636 35.6486 70.2121 47.33C71.2064 49.2348 71.6202 50.9757 72.5317 52.9633C74.2721 57.0233 76.426 61.1657 78.165 65.1424C79.905 69.0357 81.5617 73.0129 84.0474 76.2443C85.2902 77.9833 90.2607 78.8952 92.4979 79.8067C94.155 80.5519 96.7236 81.2152 98.2145 82.1262C101.031 83.8652 103.848 85.8548 106.499 87.7595C107.825 88.7538 111.967 90.8252 112.216 92.4819V92.4819Z" fill="#00546B"/>
<path d="M27.7102 20.4867C26.3022 20.4867 25.3083 20.6533 24.3141 20.9014V21.0671H24.4798C25.1431 22.3929 26.3022 23.3043 27.1302 24.4638C27.7936 25.789 28.3731 27.1152 29.0364 28.441C29.1188 28.3576 29.2017 28.2752 29.2017 28.2752C30.3622 27.4462 30.9417 26.121 30.9417 24.1324C30.4445 23.5529 30.3617 22.9729 29.9474 22.3929C29.4507 21.5638 28.3731 21.15 27.7102 20.4867V20.4867Z" fill="#00546B"/>
</g>
<defs>
<clipPath id="clip0">
<rect width="121.91" height="120" fill="white"/>
</clipPath>
</defs>
</svg>
