<svg width="196" height="120" viewBox="0 0 196 120" fill="none" xmlns="http://www.w3.org/2000/svg">
<g clip-path="url(#clip0)">
<path d="M96.7306 119.654C96.0683 119.654 95.4499 119.477 94.8755 119.168L89.0013 115.679C88.1177 115.193 88.5595 115.016 88.8247 114.928C90.0171 114.53 90.2379 114.442 91.4746 113.736C91.6072 113.647 91.7842 113.691 91.9164 113.779L96.4218 116.474C96.5983 116.562 96.8192 116.562 96.9515 116.474L114.575 106.271C114.752 106.182 114.84 106.005 114.84 105.785V85.4232C114.84 85.2019 114.752 85.0257 114.575 84.9371L96.9515 74.7783C96.7749 74.6897 96.554 74.6897 96.4218 74.7783L78.7982 84.9371C78.6216 85.0254 78.533 85.2462 78.533 85.4228V105.785C78.533 105.962 78.6216 106.182 78.7982 106.271L83.6127 109.053C86.2187 110.378 87.8529 108.832 87.8529 107.287V87.1896C87.8529 86.9247 88.0737 86.6595 88.3829 86.6595H90.6354C90.9006 86.6595 91.1655 86.8804 91.1655 87.1896V107.287C91.1655 110.776 89.2661 112.808 85.9535 112.808C84.9377 112.808 84.1428 112.808 81.8899 111.703L77.2523 109.053C76.1039 108.391 75.3973 107.154 75.3973 105.829V85.4671C75.3973 84.1422 76.1039 82.9051 77.2523 82.2428L94.8755 72.0397C95.98 71.4214 97.4819 71.4214 98.586 72.0397L116.209 82.2428C117.358 82.9051 118.065 84.1422 118.065 85.4671V105.829C118.065 107.154 117.358 108.391 116.209 109.053L98.586 119.256C98.0116 119.522 97.3493 119.654 96.7309 119.654H96.7306ZM102.163 105.652C94.4341 105.652 92.8439 102.119 92.8439 99.1154C92.8439 98.8502 93.0648 98.5854 93.374 98.5854H95.6708C95.9357 98.5854 96.1565 98.7619 96.1565 99.0271C96.5101 101.368 97.5258 102.516 102.208 102.516C105.918 102.516 107.508 101.677 107.508 99.6894C107.508 98.541 107.066 97.7022 101.28 97.1278C96.4657 96.6417 93.4623 95.5819 93.4623 91.7392C93.4623 88.1614 96.4661 86.0412 101.501 86.0412C107.155 86.0412 109.937 87.9848 110.291 92.2246C110.291 92.3576 110.247 92.4898 110.158 92.6224C110.07 92.7107 109.937 92.799 109.805 92.799H107.508C107.287 92.799 107.066 92.6224 107.022 92.4015C106.492 89.9725 105.123 89.1772 101.501 89.1772C97.4376 89.1772 96.9515 90.5908 96.9515 91.6506C96.9515 92.9316 97.5258 93.329 103.003 94.0357C108.436 94.7427 110.998 95.7585 110.998 99.5568C110.953 103.444 107.773 105.652 102.163 105.652Z" fill="#539E43"/>
<path d="M42.0495 40.0173C42.0495 39.2224 41.6078 38.4711 40.9011 38.0736L22.1735 27.2966C21.8639 27.1196 21.5108 27.0313 21.1577 26.987H20.9807C20.6276 26.987 20.2741 27.1196 19.9649 27.2966L1.23731 38.0736C0.530299 38.4711 0.0888977 39.222 0.0888977 40.0173L0.133229 68.992C0.133229 69.3894 0.354121 69.7869 0.707242 69.9638C1.06074 70.1847 1.50215 70.1847 1.8117 69.9638L12.9423 63.6034C13.6489 63.206 14.0907 62.455 14.0907 61.6601V48.1001C14.0907 47.3052 14.5321 46.5543 15.2391 46.1568L19.9649 43.4182C20.3185 43.1973 20.7159 43.1087 21.1134 43.1087C21.5108 43.1087 21.9083 43.1973 22.2178 43.4182L26.9437 46.1568C27.6507 46.5543 28.0921 47.3048 28.0921 48.1001V61.6601C28.0921 62.455 28.5339 63.206 29.2405 63.6034L40.3711 69.9638C40.7246 70.1847 41.166 70.1847 41.5195 69.9638C41.873 69.7869 42.0939 69.3894 42.0939 68.992L42.0495 40.0173Z" fill="#333333"/>
<path d="M132.066 0.132615C131.713 -0.0443272 131.271 -0.0443272 130.962 0.132615C130.608 0.353507 130.387 0.706628 130.387 1.10408V29.8143C130.387 30.0791 130.255 30.344 129.99 30.5209C129.725 30.6531 129.46 30.6531 129.195 30.5209L124.513 27.8266C124.17 27.6312 123.782 27.5284 123.387 27.5284C122.992 27.5284 122.604 27.6312 122.26 27.8266L103.533 38.648C102.826 39.0455 102.384 39.7964 102.384 40.5913V62.1898C102.384 62.9847 102.826 63.7361 103.533 64.1335L122.26 74.9549C122.604 75.1503 122.992 75.2531 123.387 75.2531C123.782 75.2531 124.17 75.1503 124.513 74.9549L143.241 64.1335C143.948 63.7361 144.389 62.9851 144.389 62.1898V8.34803C144.389 7.50879 143.948 6.75822 143.241 6.36039L132.066 0.132615H132.066ZM130.344 55.0789C130.344 55.2997 130.255 55.4763 130.078 55.5646L123.674 59.2747C123.585 59.3183 123.486 59.341 123.387 59.341C123.287 59.341 123.189 59.3183 123.1 59.2747L116.695 55.5646C116.518 55.4763 116.43 55.2554 116.43 55.0789V47.6583C116.43 47.4375 116.518 47.2609 116.695 47.1726L123.1 43.4622C123.189 43.4185 123.287 43.3959 123.387 43.3959C123.486 43.3959 123.585 43.4185 123.674 43.4622L130.078 47.1726C130.255 47.2605 130.344 47.4818 130.344 47.6583V55.0789Z" fill="#333333"/>
<path d="M194.388 47.4818C195.095 47.0844 195.493 46.3334 195.493 45.5381V40.2822C195.493 39.4873 195.051 38.7363 194.388 38.3389L175.793 27.5618C175.45 27.3664 175.062 27.2637 174.667 27.2637C174.272 27.2637 173.884 27.3664 173.541 27.5618L154.813 38.3828C154.106 38.7803 153.665 39.5312 153.665 40.3265V61.925C153.665 62.7199 154.106 63.4708 154.813 63.8683L173.408 74.4688C174.115 74.8663 174.954 74.8663 175.617 74.4688L186.88 68.1975C187.233 68.0205 187.454 67.6231 187.454 67.2256C187.454 66.8282 187.233 66.4307 186.88 66.2538L168.064 55.4324C167.711 55.2119 167.49 54.8584 167.49 54.4609V47.7031C167.49 47.3056 167.711 46.9082 168.064 46.7312L173.938 43.3743C174.11 43.2661 174.309 43.2086 174.513 43.2086C174.716 43.2086 174.915 43.2661 175.087 43.3743L180.961 46.7312C181.315 46.9521 181.535 47.3052 181.535 47.7031V53.0033C181.535 53.4008 181.756 53.7982 182.109 53.9748C182.463 54.1957 182.904 54.1957 183.258 53.9748L194.388 47.4818V47.4818Z" fill="#333333"/>
<path d="M174.38 46.466C174.446 46.4228 174.522 46.3998 174.601 46.3998C174.679 46.3998 174.756 46.4228 174.822 46.466L178.399 48.5419C178.532 48.6298 178.62 48.7624 178.62 48.9394V53.0912C178.62 53.2678 178.532 53.4004 178.399 53.4887L174.822 55.5646C174.756 55.6077 174.679 55.6307 174.601 55.6307C174.522 55.6307 174.446 55.6077 174.38 55.5646L170.802 53.4887C170.67 53.4004 170.581 53.2678 170.581 53.0912V48.9394C170.581 48.7624 170.67 48.6298 170.802 48.5419L174.38 46.466V46.466Z" fill="#539E43"/>
<mask id="mask0" style="mask-type:alpha" maskUnits="userSpaceOnUse" x="51" y="27" width="43" height="48">
<path d="M73.3653 27.6501C73.0221 27.4547 72.634 27.352 72.2391 27.352C71.8442 27.352 71.4561 27.4547 71.1129 27.6501L52.5178 38.3824C51.8108 38.7799 51.4134 39.5308 51.4134 40.3257V61.8363C51.4134 62.6312 51.8551 63.3822 52.5178 63.7796L71.1129 74.5127C71.4561 74.7081 71.8442 74.8108 72.2391 74.8108C72.634 74.8108 73.0221 74.7081 73.3653 74.5127L91.9607 63.7796C92.6674 63.3822 93.0652 62.6312 93.0652 61.8363V40.3261C93.0652 39.5312 92.623 38.7803 91.9607 38.3828L73.3653 27.6501Z" fill="white"/>
</mask>
<g mask="url(#mask0)">
<path d="M73.3653 27.6501C73.0221 27.4547 72.634 27.352 72.2391 27.352C71.8442 27.352 71.4561 27.4547 71.1129 27.6501L52.5178 38.3824C51.8108 38.7799 51.4134 39.5308 51.4134 40.3257V61.8363C51.4134 62.6312 51.8551 63.3822 52.5178 63.7796L71.1129 74.5127C71.4561 74.7081 71.8442 74.8108 72.2391 74.8108C72.634 74.8108 73.0221 74.7081 73.3653 74.5127L91.9607 63.7796C92.6674 63.3822 93.0652 62.6312 93.0652 61.8363V40.3261C93.0652 39.5312 92.623 38.7803 91.9607 38.3828L73.3653 27.6501Z" fill="url(#paint0_linear)"/>
<path d="M92.0047 38.3828L73.3214 27.6501C73.1378 27.5574 72.9454 27.4834 72.747 27.4292L51.8108 63.2946C51.9842 63.5064 52.1937 63.6858 52.4295 63.8247L71.1128 74.5578C71.6429 74.867 72.2612 74.9553 72.8352 74.7783L92.4908 38.825C92.3582 38.6484 92.1812 38.5154 92.0047 38.3832V38.3828Z" fill="url(#paint1_linear)"/>
<path fill-rule="evenodd" clip-rule="evenodd" d="M92.049 63.78C92.5791 63.4708 92.9765 62.9408 93.1535 62.3667L72.6583 27.3848C72.1283 27.2966 71.5539 27.3405 71.0685 27.6497L52.5174 38.3388L72.5257 74.8223C72.8167 74.7746 73.0993 74.6855 73.3649 74.5574L92.0486 63.7804L92.049 63.78Z" fill="url(#paint2_linear)"/>
<path fill-rule="evenodd" clip-rule="evenodd" d="M92.049 63.78L73.4096 74.5131C73.1465 74.6473 72.8629 74.7368 72.5704 74.778L72.9239 75.4406L93.5949 63.4712V63.206L93.0648 62.3224C92.9765 62.9408 92.5791 63.4708 92.049 63.78V63.78Z" fill="url(#paint3_linear)"/>
<path fill-rule="evenodd" clip-rule="evenodd" d="M92.049 63.78L73.4096 74.5131C73.1465 74.6473 72.8629 74.7368 72.5704 74.778L72.9239 75.4406L93.5949 63.4712V63.206L93.0648 62.3224C92.9765 62.9408 92.5791 63.4708 92.049 63.78V63.78Z" fill="url(#paint4_linear)"/>
</g>
</g>
<defs>
<linearGradient id="paint0_linear" x1="79.8149" y1="35.6511" x2="59.433" y2="67.6772" gradientUnits="userSpaceOnUse">
<stop stop-color="#41873F"/>
<stop offset="0.3288" stop-color="#418B3D"/>
<stop offset="0.6352" stop-color="#419637"/>
<stop offset="0.9319" stop-color="#3FA92D"/>
<stop offset="1" stop-color="#3FAE2A"/>
</linearGradient>
<linearGradient id="paint1_linear" x1="69.4159" y1="53.601" x2="120.462" y2="25.8677" gradientUnits="userSpaceOnUse">
<stop offset="0.1376" stop-color="#41873F"/>
<stop offset="0.4032" stop-color="#54A044"/>
<stop offset="0.7136" stop-color="#66B848"/>
<stop offset="0.9081" stop-color="#6CC04A"/>
</linearGradient>
<linearGradient id="paint2_linear" x1="50.7339" y1="51.082" x2="93.7626" y2="51.082" gradientUnits="userSpaceOnUse">
<stop offset="0.09192" stop-color="#6CC04A"/>
<stop offset="0.2864" stop-color="#66B848"/>
<stop offset="0.5968" stop-color="#54A044"/>
<stop offset="0.8624" stop-color="#41873F"/>
</linearGradient>
<linearGradient id="paint3_linear" x1="50.7342" y1="68.9176" x2="93.7624" y2="68.9176" gradientUnits="userSpaceOnUse">
<stop offset="0.09192" stop-color="#6CC04A"/>
<stop offset="0.2864" stop-color="#66B848"/>
<stop offset="0.5968" stop-color="#54A044"/>
<stop offset="0.8624" stop-color="#41873F"/>
</linearGradient>
<linearGradient id="paint4_linear" x1="100.031" y1="34.6339" x2="89.1304" y2="91.7534" gradientUnits="userSpaceOnUse">
<stop stop-color="#41873F"/>
<stop offset="0.3288" stop-color="#418B3D"/>
<stop offset="0.6352" stop-color="#419637"/>
<stop offset="0.9319" stop-color="#3FA92D"/>
<stop offset="1" stop-color="#3FAE2A"/>
</linearGradient>
<clipPath id="clip0">
<rect width="195.67" height="120" fill="white"/>
</clipPath>
</defs>
</svg>
