<svg width="228" height="120" viewBox="0 0 228 120" fill="none" xmlns="http://www.w3.org/2000/svg">
<g clip-path="url(#clip0)">
<path d="M113.78 119.644C176.618 119.644 227.558 92.8611 227.558 59.8222C227.558 26.7833 176.618 0 113.78 0C50.9422 0 0.00219727 26.7833 0.00219727 59.8222C0.00219727 92.8611 50.9422 119.644 113.78 119.644Z" fill="url(#paint0_radial)"/>
<path d="M113.78 115.2C174.163 115.2 223.113 90.4065 223.113 59.8222C223.113 29.2379 174.163 4.44444 113.78 4.44444C53.3969 4.44444 4.44666 29.2379 4.44666 59.8222C4.44666 90.4065 53.3969 115.2 113.78 115.2Z" fill="#6181B6"/>
<path d="M135.913 77.7778L141.336 49.8667C142.58 43.5556 141.513 38.8444 138.313 35.9111C135.202 33.0667 129.869 31.6444 122.047 31.6444H112.624L115.291 17.7778C115.38 17.2444 115.291 16.7111 114.936 16.2667C114.58 15.8222 114.136 15.6444 113.602 15.6444H100.624C99.7356 15.6444 99.0245 16.2667 98.8467 17.0667L93.0689 46.6667C92.5356 43.2889 91.2911 40.4444 89.1578 38.1333C85.3356 33.7778 79.38 31.5556 71.2911 31.5556H46.3134C45.4245 31.5556 44.7134 32.1778 44.5356 32.9778L32.8911 93.0667C32.8022 93.6 32.8911 94.1333 33.2467 94.5778C33.6022 95.0222 34.0467 95.2 34.58 95.2H47.6467C48.5356 95.2 49.2467 94.5778 49.4245 93.7778L52.2689 79.2889H61.9578C67.0245 79.2889 71.38 78.7556 74.6689 77.6889C78.1356 76.5333 81.2467 74.6667 84.0022 72.0889C86.2245 70.0444 88.0911 67.7333 89.5134 65.2444L87.2022 77.2444C87.1134 77.7778 87.2022 78.3111 87.5578 78.7556C87.9134 79.2 88.3578 79.3778 88.8911 79.3778H101.869C102.758 79.3778 103.469 78.7556 103.647 77.9556L110.047 45.0667H118.936C122.758 45.0667 123.824 45.7778 124.18 46.1333C124.447 46.4 124.98 47.4667 124.358 50.7556L119.202 77.3333C119.113 77.8667 119.202 78.4 119.558 78.8444C119.913 79.2889 120.358 79.4667 120.891 79.4667H134.224C135.024 79.2 135.736 78.5778 135.913 77.7778ZM75.8245 54.6667C75.0245 58.8444 73.5134 61.8667 71.2911 63.5556C69.0689 65.2444 65.4245 66.1333 60.6245 66.1333H54.8467L59.0245 44.6222H66.4911C72.0022 44.6222 74.2245 45.7778 75.1134 46.7556C76.2689 48.1778 76.5356 50.9333 75.8245 54.6667V54.6667Z" fill="white"/>
<path d="M191.38 38.1333C187.558 33.7778 181.602 31.5556 173.513 31.5556H148.358C147.469 31.5556 146.758 32.1778 146.58 32.9778L134.936 92.9778C134.847 93.5111 134.936 94.0444 135.291 94.4889C135.647 94.9333 136.091 95.1111 136.624 95.1111H149.691C150.58 95.1111 151.291 94.4889 151.469 93.6889L154.313 79.2H164.002C169.069 79.2 173.424 78.6667 176.713 77.6C180.18 76.4444 183.291 74.5778 186.047 72C188.358 69.8667 190.313 67.4667 191.736 64.8889C193.158 62.3111 194.224 59.4667 194.847 56.3556C196.358 48.6222 195.202 42.5778 191.38 38.1333V38.1333ZM177.78 54.6667C176.98 58.8444 175.469 61.8667 173.247 63.5556C171.024 65.2444 167.38 66.1333 162.58 66.1333H156.802L160.98 44.6222H168.447C173.958 44.6222 176.18 45.7778 177.069 46.7556C178.313 48.1778 178.58 50.9333 177.78 54.6667Z" fill="white"/>
<path d="M66.4911 42.8444C71.4689 42.8444 74.7578 43.7333 76.4467 45.6C78.1356 47.4667 78.4911 50.5778 77.6022 55.0222C76.7133 59.6444 74.9356 63.0222 72.3578 64.9778C69.78 66.9333 65.8689 67.9111 60.6244 67.9111H52.7133L57.6022 42.8444H66.4911V42.8444ZM34.6689 93.3333H47.7356L50.8467 77.4222H62.0467C67.0244 77.4222 71.0244 76.8889 74.2244 75.8222C77.4244 74.7556 80.2689 73.0667 82.9356 70.5778C85.1578 68.5333 86.9356 66.3111 88.2689 63.9111C89.6022 61.5111 90.58 58.8444 91.1133 55.9111C92.5356 48.8 91.4689 43.2889 88.0022 39.2889C84.5356 35.2889 79.0244 33.3333 71.4689 33.3333H46.3133L34.6689 93.3333Z" fill="#000004"/>
<path d="M100.713 17.4222H113.691L110.58 33.3333H122.136C129.424 33.3333 134.402 34.5778 137.158 37.1556C139.913 39.7333 140.713 43.8222 139.647 49.5111L134.224 77.4222H121.069L126.224 50.8444C126.847 47.8222 126.58 45.7778 125.602 44.7111C124.624 43.6444 122.402 43.0222 119.113 43.0222H108.713L102.047 77.4222H89.0689L100.713 17.4222V17.4222Z" fill="#000004"/>
<path d="M168.447 42.8444C173.424 42.8444 176.713 43.7333 178.402 45.6C180.091 47.4667 180.447 50.5778 179.558 55.0222C178.669 59.6444 176.891 63.0222 174.313 64.9778C171.736 66.9333 167.824 67.9111 162.58 67.9111H154.669L159.558 42.8444H168.447ZM136.624 93.3333H149.691L152.802 77.4222H164.002C168.98 77.4222 172.98 76.8889 176.18 75.8222C179.38 74.7556 182.224 73.0667 184.891 70.5778C187.113 68.5333 188.891 66.3111 190.224 63.9111C191.558 61.5111 192.536 58.8444 193.069 55.9111C194.491 48.8 193.424 43.2889 189.958 39.2889C186.491 35.2889 180.98 33.3333 173.424 33.3333H148.269L136.624 93.3333Z" fill="#000004"/>
</g>
<defs>
<radialGradient id="paint0_radial" cx="0" cy="0" r="1" gradientUnits="userSpaceOnUse" gradientTransform="translate(68.3147 21.0378) scale(149.418)">
<stop stop-color="white"/>
<stop offset="0.5" stop-color="#4C6B97"/>
<stop offset="1" stop-color="#231F20"/>
</radialGradient>
<clipPath id="clip0">
<rect width="227.56" height="120" fill="white"/>
</clipPath>
</defs>
</svg>
