<svg width="135" height="120" viewBox="0 0 135 120" fill="none" xmlns="http://www.w3.org/2000/svg">
<g clip-path="url(#clip0_28:12)">
<path d="M110.782 38.8547C109.348 38.3628 107.902 37.907 106.445 37.4879C106.69 36.4879 106.915 35.5 107.115 34.5295C110.398 18.5921 108.252 5.75263 100.921 1.52526C93.8921 -2.52737 82.3969 1.69842 70.7874 11.8021C69.6432 12.7996 68.5244 13.8259 67.4321 14.88C66.7009 14.1791 65.9567 13.4918 65.2 12.8184C53.0326 2.01526 40.8369 -2.5379 33.5137 1.70158C26.4911 5.76684 24.4116 17.8368 27.3674 32.9411C27.6614 34.437 27.9935 35.9252 28.3632 37.4042C26.6369 37.8947 24.9711 38.4168 23.3768 38.9726C9.11159 43.9463 0.00158691 51.7405 0.00158691 59.8253C0.00158691 68.1753 9.78159 76.5505 24.6395 81.629C25.844 82.039 27.0586 82.4189 28.2821 82.7684C27.8848 84.3614 27.532 85.9652 27.2242 87.5779C24.4063 102.42 26.6069 114.205 33.6105 118.244C40.8442 122.416 52.9853 118.128 64.8069 107.794C65.7655 106.954 66.7029 106.09 67.6184 105.203C68.8014 106.345 70.0159 107.453 71.2605 108.526C82.7121 118.38 94.0216 122.359 101.018 118.308C108.245 114.125 110.594 101.465 107.545 86.0621C107.305 84.8554 107.035 83.6547 106.737 82.4611C107.589 82.2084 108.426 81.9484 109.242 81.6779C124.688 76.5605 134.738 68.2868 134.738 59.8253C134.738 51.7111 125.334 43.8642 110.782 38.8547V38.8547ZM107.432 76.2147C106.695 76.4584 105.939 76.6937 105.169 76.9226C103.464 71.5242 101.163 65.7842 98.3463 59.8532C101.034 54.0637 103.246 48.3968 104.904 43.0337C106.282 43.4326 107.619 43.8532 108.909 44.2968C121.377 48.5895 128.983 54.9353 128.983 59.8253C128.983 65.0337 120.769 71.7953 107.432 76.2147V76.2147ZM101.898 87.18C103.247 93.9905 103.439 100.148 102.546 104.963C101.744 109.288 100.13 112.172 98.1342 113.327C93.8884 115.785 84.8079 112.591 75.0147 104.163C73.857 103.165 72.7273 102.135 71.6269 101.074C75.4237 96.9216 79.2179 92.0947 82.9211 86.7337C89.4347 86.1558 95.5884 85.2105 101.169 83.9205C101.444 85.0295 101.688 86.1168 101.898 87.18V87.18ZM45.9363 112.903C41.7879 114.367 38.4837 114.409 36.4863 113.258C32.2363 110.807 30.4695 101.344 32.8795 88.6516C33.166 87.1517 33.494 85.6601 33.8632 84.1784C39.3821 85.3995 45.4911 86.2774 52.02 86.8068C55.7484 92.0526 59.6521 96.8742 63.5863 101.096C62.7502 101.905 61.8944 102.694 61.0195 103.461C55.7916 108.03 50.5532 111.272 45.9363 112.903V112.903ZM26.5016 76.1826C19.9316 73.9368 14.5058 71.0184 10.7869 67.8337C7.44475 64.9721 5.7579 62.1305 5.7579 59.8253C5.7579 54.9189 13.0721 48.6611 25.2716 44.4079C26.7521 43.8921 28.3016 43.4053 29.9095 42.9484C31.5958 48.4326 33.8074 54.1668 36.4763 59.9653C33.7726 65.8495 31.5295 71.6753 29.8269 77.2242C28.7101 76.9043 27.6013 76.557 26.5016 76.1826V76.1826ZM33.0163 31.8353C30.4842 18.8947 32.1658 9.13316 36.3979 6.68316C40.9053 4.07368 50.8726 7.79421 61.3784 17.1226C62.0635 17.7323 62.7375 18.3543 63.4 18.9884C59.4853 23.1921 55.6174 27.9779 51.9221 33.1926C45.5853 33.78 39.5195 34.7232 33.9426 35.9868C33.599 34.6112 33.2902 33.227 33.0163 31.8358V31.8353ZM91.1358 46.1868C89.8186 43.9115 88.4525 41.6649 87.0384 39.4484C91.3374 39.9921 95.4563 40.7137 99.3242 41.5958C98.1632 45.3179 96.7158 49.209 95.0121 53.1984C93.7668 50.8357 92.4745 48.498 91.1358 46.1868V46.1868ZM67.4347 23.1021C70.0895 25.9784 72.7484 29.1895 75.3637 32.6737C70.0584 32.4231 64.7443 32.4221 59.439 32.6705C62.0569 29.2184 64.7384 26.0116 67.4347 23.1021ZM43.5816 46.2263C42.2597 48.5189 40.9914 50.842 39.7779 53.1937C38.1021 49.2184 36.6679 45.3095 35.4969 41.5347C39.3411 40.6747 43.4405 39.9716 47.7121 39.4379C46.2823 41.6679 44.9051 43.9311 43.5816 46.2258V46.2263ZM47.8347 80.6221C43.4216 80.1295 39.2605 79.4626 35.4174 78.6258C36.6069 74.7837 38.0726 70.7916 39.7847 66.7311C41.0031 69.0845 42.2766 71.409 43.6042 73.7026C44.9695 76.0605 46.3832 78.37 47.8347 80.6221ZM67.5937 96.9537C64.8653 94.0105 62.1442 90.7542 59.4869 87.2521C62.0669 87.3532 64.6969 87.4047 67.37 87.4047C70.1163 87.4047 72.8311 87.3432 75.5032 87.2242C72.8795 90.7895 70.2305 94.0505 67.5937 96.9537ZM95.0663 66.5237C96.8674 70.6289 98.3853 74.6 99.5905 78.3763C95.6842 79.2679 91.4663 79.9858 87.0221 80.5189C88.4462 78.2613 89.8253 75.9756 91.1584 73.6632C92.5139 71.3126 93.8168 68.9322 95.0663 66.5237V66.5237ZM86.1726 70.7874C84.1317 74.3328 81.976 77.811 79.709 81.2163C75.6024 81.5072 71.4868 81.6516 67.37 81.6495C63.1769 81.6495 59.0984 81.5189 55.1711 81.2642C52.8449 77.8668 50.648 74.3825 48.5853 70.819H48.5858C46.5327 67.2743 44.615 63.6529 42.8369 59.9626C44.6105 56.2715 46.5224 52.6484 48.5684 49.1011L48.5679 49.1016C50.6132 45.5533 52.7925 42.0839 55.1011 38.7011C59.1079 38.3979 63.2169 38.24 67.3695 38.24H67.37C71.5416 38.24 75.6558 38.3995 79.6616 38.7047C81.9469 42.0826 84.1123 45.54 86.1537 49.0705C88.2065 52.6101 90.1437 56.2155 91.9621 59.8811C90.1624 63.5841 88.2313 67.2218 86.1726 70.7874V70.7874ZM98.0463 6.51158C102.558 9.11368 104.313 19.6068 101.478 33.3674C101.297 34.2453 101.094 35.1395 100.873 36.0463C95.2821 34.7558 89.2121 33.7963 82.8569 33.2C79.1547 27.9279 75.3184 23.1347 71.4674 18.9853C72.4767 18.0124 73.51 17.0647 74.5663 16.1432C84.5137 7.48684 93.8105 4.06895 98.0463 6.51158V6.51158ZM67.37 47.7937C74.0147 47.7937 79.4016 53.1805 79.4016 59.8253C79.4016 66.47 74.0147 71.8568 67.37 71.8568C60.7253 71.8568 55.3384 66.47 55.3384 59.8253C55.3384 53.1805 60.7253 47.7937 67.37 47.7937V47.7937Z" fill="#00D8FF"/>
</g>
<defs>
<clipPath id="clip0_28:12">
<rect width="134.74" height="120" fill="white"/>
</clipPath>
</defs>
</svg>
