<svg width="120" height="120" viewBox="0 0 120 120" fill="none" xmlns="http://www.w3.org/2000/svg">
<path fill-rule="evenodd" clip-rule="evenodd" d="M60 7.5C70.3835 7.5 80.5339 10.5791 89.1674 16.3478C97.801 22.1166 104.53 30.316 108.504 39.9091C112.477 49.5022 113.517 60.0582 111.491 70.2422C109.466 80.4262 104.465 89.7808 97.1231 97.1231C89.7808 104.465 80.4262 109.466 70.2422 111.491C60.0582 113.517 49.5022 112.477 39.9091 108.504C30.316 104.53 22.1166 97.801 16.3478 89.1674C10.5791 80.5339 7.5 70.3835 7.5 60C7.5 46.0761 13.0312 32.7226 22.8769 22.8769C32.7226 13.0312 46.0761 7.5 60 7.5V7.5Z" fill="#CC6699"/>
<path d="M92.9325 29.97C90.555 20.6475 75.0937 17.595 60.4612 22.7775C51.2974 25.8568 42.8308 30.7132 35.5462 37.0688C27.4875 44.6063 26.2012 51.1688 26.73 53.91C28.605 63.585 41.8537 69.9075 47.3025 74.5987V74.625C45.6975 75.4162 33.9375 81.375 31.1775 87.45C28.275 93.87 31.6387 98.475 33.87 99.0937C37.2199 99.9002 40.7383 99.6378 43.9315 98.3431C47.1247 97.0485 49.8325 94.7867 51.675 91.875C53.1977 89.5159 54.1504 86.8348 54.4576 84.0439C54.7648 81.2529 54.4181 78.4288 53.445 75.795C56.0695 75.1281 58.7977 74.9715 61.4812 75.3338C70.6912 76.41 72.4987 82.1588 72.1537 84.5663C71.9915 85.4232 71.6466 86.2352 71.1425 86.947C70.6384 87.6588 69.987 88.2537 69.2325 88.6912C68.5875 89.0925 68.3887 89.2275 68.445 89.5275C68.5237 89.9588 68.82 89.9437 69.3712 89.85C70.7553 89.4141 71.9748 88.5692 72.8691 87.4265C73.7635 86.2838 74.2906 84.897 74.3812 83.4488C74.6025 77.8238 69.1987 71.5013 59.6287 71.6625C56.8492 71.5831 54.0757 71.9632 51.42 72.7875C51.2871 72.6356 51.1521 72.4856 51.015 72.3375C45.0975 66.0263 34.1625 61.56 34.6237 53.0738C34.7925 49.9875 35.865 41.865 55.6237 32.01C71.8237 23.9363 84.7912 26.16 87.0337 31.0837C90.2362 38.1187 80.1037 51.1875 63.2812 53.0738C61.4219 53.4512 59.5014 53.4052 57.6623 52.9391C55.8232 52.473 54.1126 51.5987 52.6575 50.3813C51.7725 49.4063 51.6412 49.365 51.3112 49.545C50.775 49.8413 51.1162 50.7037 51.3112 51.2137C51.9554 52.3747 52.8249 53.3953 53.8687 54.2156C54.9126 55.036 56.1097 55.6397 57.39 55.9912C64.0042 57.4284 70.903 56.7462 77.1075 54.0413C87.3112 50.1075 95.2687 39.1387 92.9325 29.97V29.97ZM49.5675 77.4863C50.3123 80.0539 50.2744 82.7853 49.4587 85.3312C49.3712 85.5962 49.275 85.8588 49.17 86.1188C49.065 86.3788 48.9512 86.6288 48.8287 86.8688C48.1976 88.16 47.3801 89.3515 46.4025 90.405C43.3537 93.7312 39.09 94.9913 37.2637 93.93C35.2912 92.7863 36.2775 88.095 39.8137 84.3563C42.5309 81.6693 45.6636 79.4382 49.0912 77.7487L49.5675 77.4863Z" fill="white"/>
</svg>
