<svg width="106" height="120" viewBox="0 0 106 120" fill="none" xmlns="http://www.w3.org/2000/svg">
<g clip-path="url(#clip0_28:14)">
<path d="M52.97 0.0198669L105.936 29.9806V89.9214L52.97 119.882L0.00448608 89.9214V29.9806L52.97 0.0198669Z" fill="white"/>
<path d="M96.4816 87.8429L54.729 111.487V93.0993L80.7521 78.7688L96.4816 87.8429ZM99.3397 85.2646V35.8568L84.0699 44.6706V76.4499L99.3397 85.2646V85.2646ZM9.29828 87.8425L51.0513 111.468V93.0794L25.0282 78.7688L9.29828 87.8429V87.8425ZM6.44022 85.2646V35.8568L21.7104 44.6706V76.4499L6.44022 85.2646V85.2646ZM8.21953 32.659L51.0513 8.43434V26.2233L23.6093 41.3131L23.3892 41.4331L8.21953 32.6586V32.659ZM97.5409 32.659L54.729 8.43393V26.2229L82.1511 41.3326L82.3708 41.4526L97.5409 32.6582V32.659Z" fill="#8ED6FB"/>
<path d="M51.0512 88.9022L25.3878 74.7712V46.8095L51.0512 61.62V88.9022V88.9022ZM54.729 88.9022L80.3925 74.7914V46.8095L54.729 61.62V88.9022V88.9022ZM27.1067 43.5716L52.8901 29.4008L78.6529 43.5716L52.8901 58.4421L27.1067 43.5716V43.5716Z" fill="#1C78C0"/>
</g>
<defs>
<clipPath id="clip0_28:14">
<rect width="105.94" height="120" fill="white"/>
</clipPath>
</defs>
</svg>
